<svg width="272" height="93" viewBox="0 0 272 93" fill="none" xmlns="http://www.w3.org/2000/svg">
<path d="M-1.92374e-05 52.786V1.63H14.268V3.892H2.43598V50.524H14.268V52.786H-1.92374e-05ZM75.8721 2.5V52.032H73.4361V2.5H75.8721ZM61.3721 4.82V48.552H34.3441V4.82H61.3721ZM36.7801 46.29H58.9361V7.082H36.7801V46.29ZM128.299 2.5H130.735V52.032H128.299V26.164H116.931V51.162H114.495V2.848H116.931V23.902H128.299V2.5ZM88.8592 46.29H93.2092C100.865 46.29 105.621 45.42 109.855 43.448V45.942C106.375 47.566 101.155 48.552 93.3832 48.552H86.4232V25.004H102.895V7.082H86.4232V4.82H105.331V27.266H88.8592V46.29ZM181.77 2.5H184.206V52.032H181.77V2.5ZM170.17 22.104V2.848H172.606V51.162H170.17V24.366H154.684V22.104H170.17ZM142.388 46.29H152.364C156.83 46.29 160.89 45.594 163.906 44.202V46.464C160.948 47.914 156.598 48.552 151.9 48.552H139.952V4.704H142.388V46.29ZM221.147 17.696C218.305 27.788 207.923 31.79 193.307 31.79V29.47C206.009 29.47 215.289 26.164 218.363 18.392H193.307V16.13H219.117C219.349 14.854 219.523 13.52 219.523 12.07V6.502H193.307V4.24H221.959V11.49C221.959 12.882 221.843 14.216 221.669 15.434H234.313V2.5H236.749V36.778H234.313V17.696H221.147ZM238.953 49.48L237.677 51.51L216.275 41.128C211.577 47.16 203.515 50.814 195.801 50.872V48.552C205.023 48.378 215.173 42.694 217.377 32.834L219.871 33.356C219.465 35.502 218.653 37.474 217.551 39.272L238.953 49.48ZM271.212 52.786H256.944V50.524H268.776V3.892H256.944V1.63H271.212V52.786Z" fill="white"/>
<path d="M33.3632 78.731H33.9222V89.001H33.3632V78.731ZM40.4131 89.001V81.721H40.9591V83.32C41.1931 82.696 41.9731 81.539 43.5851 81.539C44.8201 81.539 45.6651 82.345 45.9251 83.606C46.3151 82.371 47.3551 81.539 48.7071 81.539C50.0981 81.539 51.1771 82.696 51.1771 84.386V89.001H50.6311V84.477C50.6311 82.982 49.8121 82.046 48.5901 82.046C47.1731 82.046 46.0681 83.528 46.0681 85.114V89.001H45.5221V84.568C45.5221 82.982 44.6901 82.046 43.4811 82.046C42.0771 82.046 40.9591 83.541 40.9591 85.088V89.001H40.4131ZM60.5384 89.183C58.4974 89.183 57.0024 87.519 57.0024 85.361C57.0024 83.203 58.4974 81.539 60.5384 81.539C62.2674 81.539 63.3854 82.644 63.6714 83.463V81.721H64.2174V89.001H63.6714V87.259C63.3854 88.078 62.2674 89.183 60.5384 89.183ZM60.5774 88.676C62.3974 88.676 63.6844 87.233 63.6844 85.361C63.6844 83.489 62.3974 82.046 60.5774 82.046C58.7574 82.046 57.5484 83.489 57.5484 85.361C57.5484 87.233 58.7574 88.676 60.5774 88.676ZM74.0841 92.329C72.0561 92.329 71.0161 91.185 70.7431 89.794H71.3151C71.5101 90.86 72.3551 91.822 74.0841 91.822C75.7481 91.822 76.9182 90.743 76.9182 88.806V87.259C76.6321 88.078 75.5141 89.183 73.7851 89.183C71.7441 89.183 70.2491 87.519 70.2491 85.361C70.2491 83.203 71.7441 81.539 73.7851 81.539C75.5141 81.539 76.6321 82.644 76.9182 83.463V81.721H77.4642V88.806C77.4642 90.938 76.1251 92.329 74.0841 92.329ZM73.8241 88.676C75.6441 88.676 76.9312 87.233 76.9312 85.361C76.9312 83.489 75.6441 82.046 73.8241 82.046C72.0041 82.046 70.7951 83.489 70.7951 85.361C70.7951 87.233 72.0041 88.676 73.8241 88.676ZM84.1589 78.484C84.4189 78.484 84.6139 78.679 84.6139 78.939C84.6139 79.199 84.4189 79.394 84.1589 79.394C83.8989 79.394 83.7039 79.199 83.7039 78.939C83.7039 78.679 83.8989 78.484 84.1589 78.484ZM84.4319 81.721V89.001H83.8859V81.721H84.4319ZM90.8486 89.001V81.721H91.3946V83.528C91.6026 82.839 92.6166 81.539 94.3846 81.539C96.0356 81.539 97.2316 82.787 97.2316 84.698V89.001H96.6856V84.789C96.6856 83.008 95.7496 82.046 94.2676 82.046C92.6556 82.046 91.3946 83.684 91.3946 85.205V89.001H90.8486ZM106.594 89.183C104.553 89.183 103.058 87.532 103.058 85.361C103.058 83.19 104.553 81.539 106.594 81.539C108.635 81.539 110.13 83.19 110.13 85.361C110.13 85.439 110.13 85.543 110.117 85.608H103.617C103.721 87.363 104.904 88.676 106.594 88.676C107.894 88.676 108.882 88.026 109.207 87.168H109.805C109.402 88.325 108.18 89.183 106.594 89.183ZM103.617 85.101H109.571C109.467 83.346 108.284 82.046 106.594 82.046C104.904 82.046 103.721 83.346 103.617 85.101ZM129.699 81.721H130.284L125.422 92.147H124.837L126.358 88.897L123.03 81.721H123.628L126.657 88.273L129.699 81.721ZM138.757 81.539C140.837 81.539 142.371 83.19 142.371 85.361C142.371 87.532 140.837 89.183 138.757 89.183C136.677 89.183 135.143 87.532 135.143 85.361C135.143 83.19 136.677 81.539 138.757 81.539ZM138.757 82.046C136.937 82.046 135.689 83.476 135.689 85.361C135.689 87.246 136.937 88.676 138.757 88.676C140.577 88.676 141.825 87.246 141.825 85.361C141.825 83.476 140.577 82.046 138.757 82.046ZM151.038 89.183C149.374 89.183 148.191 87.935 148.191 86.024V81.721H148.737V85.933C148.737 87.714 149.673 88.676 151.155 88.676C152.767 88.676 154.028 87.038 154.028 85.517V81.721H154.574V89.001H154.028V87.194C153.872 87.844 152.845 89.183 151.038 89.183ZM160.998 89.001V81.721H161.544V83.528C161.765 82.826 162.831 81.539 164.664 81.539C165.145 81.539 165.444 81.591 165.665 81.669V82.202C165.418 82.098 165.08 82.046 164.638 82.046C162.87 82.046 161.544 83.684 161.544 85.205V89.001H160.998ZM182.044 81.721V82.228H180.237V89.001H179.691V82.228H178.066V81.721H179.691V80.044C179.691 79.03 180.237 78.354 181.199 78.354C181.459 78.354 181.732 78.38 181.914 78.432V78.913C181.732 78.874 181.459 78.861 181.251 78.861C180.614 78.861 180.237 79.277 180.237 80.018V81.721H182.044ZM190.225 89.183C188.561 89.183 187.378 87.935 187.378 86.024V81.721H187.924V85.933C187.924 87.714 188.86 88.676 190.342 88.676C191.954 88.676 193.215 87.038 193.215 85.517V81.721H193.761V89.001H193.215V87.194C193.059 87.844 192.032 89.183 190.225 89.183ZM203.475 81.721V82.228H201.707V89.001H201.161V82.228H199.393V81.721H201.161V79.459H201.707V81.721H203.475ZM211.742 89.183C210.078 89.183 208.895 87.935 208.895 86.024V81.721H209.441V85.933C209.441 87.714 210.377 88.676 211.859 88.676C213.471 88.676 214.732 87.038 214.732 85.517V81.721H215.278V89.001H214.732V87.194C214.576 87.844 213.549 89.183 211.742 89.183ZM221.703 89.001V81.721H222.249V83.528C222.47 82.826 223.536 81.539 225.369 81.539C225.85 81.539 226.149 81.591 226.37 81.669V82.202C226.123 82.098 225.785 82.046 225.343 82.046C223.575 82.046 222.249 83.684 222.249 85.205V89.001H221.703ZM234.515 89.183C232.474 89.183 230.979 87.532 230.979 85.361C230.979 83.19 232.474 81.539 234.515 81.539C236.556 81.539 238.051 83.19 238.051 85.361C238.051 85.439 238.051 85.543 238.038 85.608H231.538C231.642 87.363 232.825 88.676 234.515 88.676C235.815 88.676 236.803 88.026 237.128 87.168H237.726C237.323 88.325 236.101 89.183 234.515 89.183ZM231.538 85.101H237.492C237.388 83.346 236.205 82.046 234.515 82.046C232.825 82.046 231.642 83.346 231.538 85.101Z" fill="white"/>
</svg>
